<?xml version="1.0" encoding="iso-8859-1"?>
<!-- Uploaded to: SVG Repo, www.svgrepo.com, Generator: SVG Repo Mixer Tools -->
<svg height="800px" width="800px" version="1.1" id="Capa_1" xmlns="http://www.w3.org/2000/svg" xmlns:xlink="http://www.w3.org/1999/xlink" 
	 viewBox="0 0 319.8 319.8" xml:space="preserve">
<g>
	<path style="fill:#010002;" d="M7.796,238.365l14.356,52.705c0,15.872,12.877,28.73,28.76,28.73h217.976
		c15.908,0,28.736-12.859,28.736-28.73l14.38-52.705H7.796z"/>
	<path style="fill:#010002;" d="M152.713,14.374v200.039h7.178c3.974,0,7.19-6.444,7.19-14.368V0h-7.19
		C155.941,0,152.713,6.45,152.713,14.374z"/>
	<path style="fill:#010002;" d="M58.096,207.229h81.448V53.899l-88.22,141.134C47.105,201.764,50.149,207.229,58.096,207.229z"/>
	<path style="fill:#010002;" d="M183.681,207.229h70.66c7.936,0,10.185-4.875,5.012-10.901L183.681,108.4V207.229z"/>
</g>
</svg>